<?xml version="1.0" encoding="UTF-8" standalone="no"?>
<!-- Creator: CorelDRAW (Evaluation Version) -->

<svg
   xml:space="preserve"
   width="677px"
   height="160px"
   version="1.1"
   shape-rendering="geometricPrecision"
   text-rendering="geometricPrecision"
   image-rendering="optimizeQuality"
   fill-rule="evenodd"
   clip-rule="evenodd"
   viewBox="0 0 677 160.233"
   id="svg26"
   sodipodi:docname="lopa.svg"
   xmlns:inkscape="http://www.inkscape.org/namespaces/inkscape"
   xmlns:sodipodi="http://sodipodi.sourceforge.net/DTD/sodipodi-0.dtd"
   xmlns="http://www.w3.org/2000/svg"
   xmlns:svg="http://www.w3.org/2000/svg"><defs
   id="defs30" /><sodipodi:namedview
   id="namedview28"
   pagecolor="#ffffff"
   bordercolor="#000000"
   borderopacity="0.25"
   inkscape:showpageshadow="2"
   inkscape:pageopacity="0.0"
   inkscape:pagecheckerboard="0"
   inkscape:deskcolor="#d1d1d1" />
 <g
   id="Layer_x0020_1"
   inkscape:label="Layer 1">
  <metadata
   id="CorelCorpID_0Corel-Layer" />
  <polygon
   fill="black"
   fill-rule="nonzero"
   points="264.817,106.792 252.945,106.792 229.625,81.411 229.414,81.411 229.414,106.792 220.942,106.792 220.942,28.571 229.414,28.571 229.414,78.153 229.625,78.153 251.8,53.952 262.897,53.952 238.396,79.439 "
   id="polygon3" />
  <path
   id="_1"
   fill="black"
   fill-rule="nonzero"
   d="M301.03 62.512c-1.479,-1.127 -3.611,-1.691 -6.394,-1.691 -3.628,0 -6.64,1.691 -9.071,5.108 -2.413,3.4 -3.628,8.049 -3.628,13.933l0 26.93 -8.472 0 0 -52.84 8.472 0 0 10.885 0.211 0c1.198,-3.716 3.03,-6.605 5.513,-8.701 2.484,-2.078 5.249,-3.118 8.314,-3.118 2.202,0 3.875,0.247 5.055,0.723l0 8.771z" />
  <path
   id="_2"
   fill="black"
   fill-rule="nonzero"
   d="M352.268 53.952l-24.307 61.295c-4.333,10.956 -10.427,16.416 -18.265,16.416 -2.202,0 -4.034,-0.229 -5.513,-0.67l0 -7.591c1.814,0.616 3.487,0.933 5.002,0.933 4.262,0 7.468,-2.536 9.599,-7.626l4.228 -10.022 -20.643 -52.735 9.388 0 14.302 40.67c0.176,0.51 0.528,1.849 1.074,4.015l0.317 0c0.176,-0.827 0.511,-2.131 1.022,-3.927l15.024 -40.758 8.772 0z" />
  <path
   id="_3"
   fill="black"
   fill-rule="nonzero"
   d="M370.022 99.148l-0.212 0 0 31.951 -8.472 0 0 -77.147 8.472 0 0 9.282 0.212 0c4.157,-7.01 10.251,-10.515 18.265,-10.515 6.799,0 12.118,2.36 15.94,7.098 3.822,4.721 5.725,11.061 5.725,19.005 0,8.842 -2.149,15.923 -6.447,21.242 -4.298,5.302 -10.18,7.961 -17.649,7.961 -6.851,0 -12.118,-2.959 -15.834,-8.877zm-0.212 -21.312l0 7.38c0,4.368 1.41,8.085 4.263,11.132 2.836,3.047 6.429,4.562 10.797,4.562 5.125,0 9.141,-1.956 12.048,-5.883 2.906,-3.928 4.368,-9.371 4.368,-16.363 0,-5.883 -1.356,-10.48 -4.086,-13.827 -2.713,-3.329 -6.394,-5.002 -11.027,-5.002 -4.931,0 -8.877,1.709 -11.871,5.125 -2.994,3.435 -4.492,7.715 -4.492,12.876z" />
  <path
   id="_4"
   fill="black"
   fill-rule="nonzero"
   d="M447.979 106.282c-1.99,1.092 -4.632,1.638 -7.891,1.638 -9.264,0 -13.879,-5.161 -13.879,-15.483l0 -31.263 -9.089 0 0 -7.222 9.089 0 0 -12.893 8.454 -2.748 0 15.641 13.316 0 0 7.222 -13.316 0 0 29.784c0,3.54 0.599,6.059 1.814,7.574 1.198,1.514 3.189,2.272 5.989,2.272 2.131,0 3.963,-0.582 5.513,-1.761l0 7.239z" />
  <path
   id="_5"
   fill="black"
   fill-rule="nonzero"
   d="M481.356 108.025c-7.802,0 -14.038,-2.466 -18.705,-7.397 -4.65,-4.932 -6.993,-11.484 -6.993,-19.639 0,-8.878 2.431,-15.799 7.275,-20.802 4.861,-4.985 11.413,-7.468 19.674,-7.468 7.873,0 14.02,2.413 18.441,7.274 4.421,4.844 6.623,11.572 6.623,20.168 0,8.437 -2.378,15.183 -7.134,20.255 -4.773,5.073 -11.166,7.609 -19.181,7.609zm0.617 -48.19c-5.425,0 -9.723,1.849 -12.893,5.548 -3.171,3.699 -4.756,8.789 -4.756,15.306 0,6.253 1.603,11.185 4.809,14.796 3.205,3.61 7.485,5.425 12.84,5.425 5.477,0 9.687,-1.779 12.629,-5.32 2.941,-3.54 4.403,-8.577 4.403,-15.112 0,-6.605 -1.462,-11.695 -4.403,-15.271 -2.942,-3.593 -7.152,-5.372 -12.629,-5.372z" />
  <path
   id="_6"
   fill="#2299FB"
   fill-rule="nonzero"
   d="M586.174 106.792l-18.159 0 -5.267 -16.468 -26.314 0 -5.214 16.468 -18.071 0 26.948 -73.994 19.763 0 26.314 73.994zm-27.248 -29.256l-7.944 -24.87c-0.581,-1.867 -1.003,-4.086 -1.25,-6.658l-0.405 0c-0.176,2.167 -0.599,4.316 -1.286,6.447l-8.05 25.081 18.935 0z" />
  <path
   id="_7"
   fill="#2299FB"
   fill-rule="nonzero"
   d="M612.083 81.306l0 25.486 -16.679 0 0 -73.994 26.121 0c18.652,0 27.969,7.856 27.969,23.585 0,7.433 -2.677,13.439 -8.031,18.036 -5.355,4.579 -12.488,6.887 -21.436,6.887l-7.944 0zm0 -35.72l0 23.073 6.553 0c8.877,0 13.316,-3.892 13.316,-11.66 0,-7.609 -4.439,-11.413 -13.316,-11.413l-6.553 0z" />
  <polygon
   id="_8"
   fill="#2299FB"
   fill-rule="nonzero"
   points="677.007,106.792 660.327,106.792 660.327,32.798 677.007,32.798 " />
  <path
   fill="#2299FB"
   d="M65.379 65.805l68.656 -65.806 0.304 0 -0.304 0.103c12.337,1.748 23.776,6.282 33.664,12.943l-49.004 52.76 -53.316 0z"
   id="path13" />
  <path
   fill="#2299FB"
   d="M118.695 94.428l49.004 52.76c-9.888,6.661 -21.327,11.195 -33.664,12.943l0.326 0.102 -0.326 0 -68.657 -65.805 53.317 0z"
   id="path15" />
  <rect
   fill="black"
   x="-0.008"
   y="65.414"
   width="63.525"
   height="7.029"
   id="rect17" />
  <rect
   fill="black"
   x="25.98"
   y="76.602"
   width="63.526"
   height="7.029"
   id="rect19" />
  <rect
   fill="black"
   x="-0.008"
   y="87.79"
   width="63.525"
   height="7.029"
   id="rect21" />
  <path
   fill="#2299FB"
   fill-rule="nonzero"
   d="M113.447 147.259c-4.58,2.022 -9.42,3.592 -14.459,4.652 -4.907,1.031 -9.974,1.574 -15.143,1.574 -16.209,0 -31.197,-5.264 -43.346,-14.177 -12.455,-9.137 -21.922,-22.114 -26.657,-37.187l5.022 -1.564c4.393,13.986 13.18,26.029 24.744,34.512 11.266,8.264 25.177,13.146 40.237,13.146 4.848,0 9.554,-0.5 14.072,-1.45 4.649,-0.977 9.138,-2.437 13.409,-4.322l2.121 4.816zm-99.605 -89.146c4.735,-15.073 14.202,-28.051 26.657,-37.188 12.149,-8.913 27.137,-14.177 43.346,-14.177 5.143,0 10.186,0.538 15.072,1.559 5,1.044 9.813,2.599 14.382,4.605l-2.1 4.816c-4.242,-1.862 -8.711,-3.306 -13.352,-4.276 -4.495,-0.939 -9.179,-1.434 -14.002,-1.434 -15.06,0 -28.971,4.882 -40.237,13.147 -11.564,8.482 -20.351,20.526 -24.744,34.512l-5.022 -1.564z"
   id="path23" />
 </g>
</svg>
